<?xml version="1.0" standalone="no"?>
<!DOCTYPE svg PUBLIC "-//W3C//DTD SVG 20010904//EN"
 "http://www.w3.org/TR/2001/REC-SVG-20010904/DTD/svg10.dtd">
<svg version="1.0" xmlns="http://www.w3.org/2000/svg"
 width="700.000000pt" height="700.000000pt" viewBox="0 0 700.000000 700.000000"
 preserveAspectRatio="xMidYMid meet">
<metadata>
Created by potrace 1.14, written by Peter Selinger 2001-2017
</metadata>
<g transform="translate(0.000000,700.000000) scale(0.100000,-0.100000)"
fill="#000000" stroke="none">
<path d="M2919 6120 c-7 -34 -2 -426 6 -436 6 -7 136 -96 290 -198 l280 -186
3 120 3 120 57 0 c67 1 2518 1 2547 0 20 0 20 -6 20 -2034 0 -1119 -3 -2037
-6 -2041 -4 -3 -266 -6 -583 -6 l-576 1 -1 -43 c-1 -53 -1 -448 0 -502 l1 -40
873 0 872 0 0 2625 0 2625 -1892 0 c-1041 0 -1893 -2 -1894 -5z"/>
<path d="M2283 5271 c-55 -36 -108 -70 -116 -76 -9 -5 -278 -185 -599 -400
-321 -214 -591 -394 -600 -400 -9 -5 -165 -109 -347 -230 l-330 -220 2 -1535
2 -1535 2040 0 2040 0 0 1555 c1 855 -1 1562 -3 1570 -2 9 -156 117 -343 240
-187 124 -346 230 -352 235 -7 6 -300 202 -652 436 l-641 426 -101 -66z m254
-728 c68 -43 200 -127 295 -187 95 -61 209 -133 253 -162 44 -28 221 -140 393
-249 l312 -199 0 -1143 0 -1143 -412 -2 c-227 -2 -424 -2 -438 0 l-25 3 1 874
0 874 -583 0 -583 0 0 -874 0 -875 -352 -1 c-466 -1 -508 0 -516 5 -4 2 -7
502 -7 1110 l0 1106 314 200 c172 110 315 200 318 200 2 0 10 6 18 13 11 10
657 422 807 514 37 23 56 29 67 23 9 -5 71 -44 138 -87z"/>
<path d="M4186 4839 c98 -65 181 -119 184 -119 3 0 5 54 5 119 l0 119 -183 0
-184 1 178 -120z"/>
<path d="M4959 4916 c0 -50 0 -493 0 -521 1 -20 7 -20 285 -20 156 0 287 3
291 7 6 6 8 161 5 525 l0 52 -290 -1 -290 0 -1 -42z"/>
<path d="M4977 3792 c-10 -2 -17 -11 -18 -20 -3 -89 0 -554 3 -558 7 -6 568
-7 574 -1 4 4 7 424 5 549 l-1 27 -273 3 c-151 2 -281 2 -290 0z"/>
<path d="M4960 2605 c-1 -28 -1 -526 -1 -546 1 -15 29 -17 291 -17 l290 0 1
66 c0 95 0 408 0 467 l-1 50 -290 0 c-283 0 -290 0 -290 -20z"/>
</g>
</svg>
